<svg fill="white" viewBox="0 0 24 24" xmlns="http://www.w3.org/2000/svg">
    <path d="M11.05 8.291c.329.064.578.242.746.534l2.333 4.042.697-.402c.142-.082.27-.144.382-.187.113-.043.244-.07.392-.08l3.95-.44a1.69 1.69 0 0 1 1.037.187c.304.169.514.414.631.736l1.247 3.321c.124.363.097.734-.08 1.113a1.977 1.977 0 0 1-.826.892l-4.894 2.826c-.219.126-.446.209-.682.248-.236.038-.46.037-.673-.005l-4.477-1.007c-.258-.06-.445-.192-.562-.394a.81.81 0 0 1-.098-.617c.057-.228.17-.42.337-.577a1.66 1.66 0 0 1 .62-.357l2.448-.852-4.103-7.106a1.06 1.06 0 0 1-.09-.914c.11-.318.332-.573.667-.767.335-.194.668-.258.997-.194ZM18.75 3c1.186 0 2.165.93 2.245 2.097L21 5.25V9a1 1 0 0 1-2 0V6.167a1.17 1.17 0 0 0-1.04-1.16L17.833 5H6.167a1.17 1.17 0 0 0-1.16 1.04L5 6.167v11.666a1.17 1.17 0 0 0 1.04 1.16l.127.007H8a1 1 0 0 1 0 2H5.25a2.257 2.257 0 0 1-2.245-2.097L3 18.75V5.25c0-1.186.93-2.165 2.097-2.245L5.25 3h13.5Z"/>
</svg>
